<?xml version="1.0" encoding="UTF-8" standalone="no"?>
<svg
   inkscape:export-ydpi="96"
   inkscape:export-xdpi="96"
   inkscape:export-filename="./favicon.png"
   sodipodi:docname="icono-email.svg"
   inkscape:version="1.1.2 (1:1.1+202202050950+0a00cf5339)"
   id="svg8"
   version="1.1"
   viewBox="0 0 8.4666662 8.4666662"
   height="8.4666662mm"
   width="8.4666662mm"
   xmlns:inkscape="http://www.inkscape.org/namespaces/inkscape"
   xmlns:sodipodi="http://sodipodi.sourceforge.net/DTD/sodipodi-0.dtd"
   xmlns:xlink="http://www.w3.org/1999/xlink"
   xmlns="http://www.w3.org/2000/svg"
   xmlns:svg="http://www.w3.org/2000/svg"
   xmlns:rdf="http://www.w3.org/1999/02/22-rdf-syntax-ns#"
   xmlns:cc="http://creativecommons.org/ns#"
   xmlns:dc="http://purl.org/dc/elements/1.1/">
  <defs
     id="defs2">
    <linearGradient
       inkscape:collect="always"
       id="linearGradient64">
      <stop
         style="stop-color:#565656;stop-opacity:1;"
         offset="0"
         id="stop60" />
      <stop
         style="stop-color:#757575;stop-opacity:1"
         offset="1"
         id="stop62" />
    </linearGradient>
    <linearGradient
       id="linearGradient892"
       inkscape:collect="always">
      <stop
         id="stop888"
         offset="0"
         style="stop-color:#363636;stop-opacity:1" />
      <stop
         id="stop890"
         offset="1"
         style="stop-color:#c9c9c9;stop-opacity:1" />
    </linearGradient>
    <linearGradient
       inkscape:collect="always"
       id="linearGradient28">
      <stop
         style="stop-color:#808080;stop-opacity:1"
         offset="0"
         id="stop24" />
      <stop
         style="stop-color:#1a1a1a;stop-opacity:1"
         offset="1"
         id="stop26" />
    </linearGradient>
    <linearGradient
       gradientUnits="userSpaceOnUse"
       y2="57.390835"
       x2="85.329559"
       y1="57.390835"
       x1="50.432499"
       id="linearGradient32-3"
       xlink:href="#linearGradient28"
       inkscape:collect="always"
       gradientTransform="matrix(3.7795276,0,0,3.7795276,-178.42254,-191.06632)" />
    <linearGradient
       gradientUnits="userSpaceOnUse"
       y2="57.390835"
       x2="85.329559"
       y1="57.390835"
       x1="50.432499"
       id="linearGradient32-35"
       xlink:href="#linearGradient892"
       inkscape:collect="always"
       gradientTransform="matrix(3.7795276,0,0,3.7795276,-178.42254,-191.06632)" />
    <clipPath
       clipPathUnits="userSpaceOnUse"
       id="clipPath893">
      <rect
         style="font-variation-settings:normal;opacity:1;vector-effect:none;fill:url(#linearGradient897);fill-opacity:1;fill-rule:evenodd;stroke:none;stroke-width:0.0703392;stroke-linecap:butt;stroke-linejoin:miter;stroke-miterlimit:4;stroke-dasharray:none;stroke-dashoffset:0;stroke-opacity:1;stop-color:#000000;stop-opacity:1"
         id="rect895"
         width="33.866665"
         height="33.866665"
         x="47.014252"
         y="50.552963"
         rx="0"
         ry="6.3152952" />
    </clipPath>
    <linearGradient
       inkscape:collect="always"
       xlink:href="#linearGradient64"
       id="linearGradient897"
       gradientUnits="userSpaceOnUse"
       x1="63.622772"
       y1="80.642242"
       x2="63.622772"
       y2="51.282772" />
  </defs>
  <sodipodi:namedview
     inkscape:snap-page="true"
     inkscape:document-rotation="0"
     fit-margin-bottom="0"
     fit-margin-right="0"
     fit-margin-left="0"
     fit-margin-top="0"
     inkscape:pagecheckerboard="0"
     inkscape:window-maximized="1"
     inkscape:window-y="0"
     inkscape:window-x="0"
     inkscape:window-height="743"
     inkscape:window-width="1366"
     showgrid="false"
     inkscape:current-layer="layer1"
     inkscape:document-units="mm"
     inkscape:cy="18.30482"
     inkscape:cx="38.399701"
     inkscape:zoom="8.6589216"
     inkscape:pageshadow="2"
     inkscape:pageopacity="0"
     borderopacity="1.0"
     bordercolor="#666666"
     pagecolor="#d2d2d2"
     id="base"
     inkscape:snap-global="true"
     inkscape:snap-bbox="true"
     inkscape:bbox-paths="true"
     inkscape:snap-bbox-edge-midpoints="true"
     inkscape:snap-bbox-midpoints="true"
     inkscape:bbox-nodes="true" />
  <metadata
     id="metadata5">
    <rdf:RDF>
      <cc:Work
         rdf:about="">
        <dc:format>image/svg+xml</dc:format>
        <dc:type
           rdf:resource="http://purl.org/dc/dcmitype/StillImage" />
        <dc:title />
      </cc:Work>
    </rdf:RDF>
  </metadata>
  <g
     transform="translate(-46.635666,-50.174377)"
     id="layer1"
     inkscape:groupmode="layer"
     inkscape:label="Capa 1">
    <rect
       ry="4.2333331"
       y="50.174377"
       x="46.635666"
       height="8.4666662"
       width="8.467"
       id="rect42"
       style="font-variation-settings:normal;opacity:1;vector-effect:none;fill:#1a1a1a;fill-opacity:1;fill-rule:evenodd;stroke:none;stroke-width:0.25;stroke-linecap:butt;stroke-linejoin:miter;stroke-miterlimit:4;stroke-dasharray:none;stroke-dashoffset:0;stroke-opacity:1;paint-order:stroke fill markers;stop-color:#000000;stop-opacity:1" />
    <g
       transform="matrix(0.93011057,0,0,0.93011057,4.9150983,4.3512147)"
       style="font-style:normal;font-variant:normal;font-weight:normal;font-stretch:normal;font-size:20.9395px;line-height:1.25;font-family:'Roboto Black';-inkscape-font-specification:'Roboto Black, ';font-variation-settings:normal;opacity:1;vector-effect:none;fill:#ffe38d;fill-opacity:1;stroke:none;stroke-width:3.11029;stroke-linecap:round;stroke-linejoin:miter;stroke-miterlimit:4;stroke-dasharray:none;stroke-dashoffset:0;stroke-opacity:0.994789;stop-color:#000000;stop-opacity:1"
       id="text23"
       aria-label="N" />
    <path
       id="path81"
       style="font-variation-settings:normal;opacity:1;vector-effect:none;fill:#ffffff;fill-opacity:1;stroke-width:0.0164743;stroke-linecap:butt;stroke-linejoin:miter;stroke-miterlimit:4;stroke-dasharray:none;stroke-dashoffset:0;stroke-opacity:1;stop-color:#000000;stop-opacity:1"
       d="m 48.646715,51.662364 0.03214,0.05085 c 0.077,0.123664 1.719472,2.69597 1.76686,2.767105 0.07308,0.109702 0.196531,0.249263 0.251381,0.284002 0.06188,0.03919 0.115702,0.0439 0.224515,0.01967 0.0499,-0.01111 0.133563,-0.03884 0.185657,-0.06189 0.104696,-0.04632 3.029582,-1.564408 3.039113,-1.577364 0.0033,-0.0043 -1.231645,-0.339055 -2.746957,-0.745018 z m -0.388584,0.325739 -0.441355,1.647406 c -0.413148,1.541881 -0.4401,1.646496 -0.41977,1.63733 0.01196,-0.0053 0.514601,-0.271151 1.116822,-0.590552 0.602218,-0.319398 1.096969,-0.583584 1.099549,-0.587194 0.0041,-0.0056 -1.267659,-1.986867 -1.331261,-2.073889 z m 6.076305,1.632539 c -0.0019,-0.0034 -0.12422,0.05576 -0.27153,0.131447 -0.147311,0.07568 -0.646731,0.331822 -1.109623,0.569444 -0.462892,0.237626 -0.840907,0.43784 -0.840494,0.444714 4.11e-4,0.0068 0.301441,0.493229 0.669228,1.08084 l 0.66875,1.068367 0.443704,-1.644541 c 0.243876,-0.904466 0.441806,-1.646957 0.439863,-1.650299 z m -4.485509,0.892786 c -0.0098,-0.0078 -2.23039,1.138004 -2.246114,1.159036 -0.0033,0.0042 1.225537,0.337893 2.730645,0.741186 l 2.736401,0.733512 -0.02734,-0.04605 c -0.06783,-0.114643 -1.331453,-2.092769 -1.337977,-2.094516 -0.004,-0.0011 -0.08991,0.04066 -0.190936,0.09258 -0.230921,0.118699 -0.312425,0.151394 -0.43272,0.174142 -0.157194,0.02972 -0.253517,0.02455 -0.43224,-0.02254 -0.124146,-0.03272 -0.170843,-0.04973 -0.240348,-0.08826 -0.176312,-0.09772 -0.251849,-0.177761 -0.427922,-0.45239 -0.0662,-0.103245 -0.125235,-0.19171 -0.131447,-0.196689 z" />
  </g>
</svg>
