<?xml version="1.0" encoding="UTF-8" standalone="no"?>
<svg
   width="8.4666662mm"
   height="8.4666662mm"
   viewBox="0 0 8.4666662 8.4666662"
   version="1.1"
   id="svg8"
   inkscape:version="1.1.2 (1:1.1+202202050950+0a00cf5339)"
   sodipodi:docname="icono-html.svg"
   inkscape:export-filename="./favicon.png"
   inkscape:export-xdpi="96"
   inkscape:export-ydpi="96"
   xmlns:inkscape="http://www.inkscape.org/namespaces/inkscape"
   xmlns:sodipodi="http://sodipodi.sourceforge.net/DTD/sodipodi-0.dtd"
   xmlns:xlink="http://www.w3.org/1999/xlink"
   xmlns="http://www.w3.org/2000/svg"
   xmlns:svg="http://www.w3.org/2000/svg"
   xmlns:rdf="http://www.w3.org/1999/02/22-rdf-syntax-ns#"
   xmlns:cc="http://creativecommons.org/ns#"
   xmlns:dc="http://purl.org/dc/elements/1.1/">
  <defs
     id="defs2">
    <linearGradient
       id="linearGradient64"
       inkscape:collect="always">
      <stop
         id="stop60"
         offset="0"
         style="stop-color:#565656;stop-opacity:1;" />
      <stop
         id="stop62"
         offset="1"
         style="stop-color:#757575;stop-opacity:1" />
    </linearGradient>
    <linearGradient
       inkscape:collect="always"
       id="linearGradient892">
      <stop
         style="stop-color:#363636;stop-opacity:1"
         offset="0"
         id="stop888" />
      <stop
         style="stop-color:#c9c9c9;stop-opacity:1"
         offset="1"
         id="stop890" />
    </linearGradient>
    <linearGradient
       id="linearGradient28"
       inkscape:collect="always">
      <stop
         id="stop24"
         offset="0"
         style="stop-color:#808080;stop-opacity:1" />
      <stop
         id="stop26"
         offset="1"
         style="stop-color:#1a1a1a;stop-opacity:1" />
    </linearGradient>
    <linearGradient
       gradientTransform="matrix(3.7795276,0,0,3.7795276,-178.42254,-191.06632)"
       inkscape:collect="always"
       xlink:href="#linearGradient28"
       id="linearGradient32-3"
       x1="50.432499"
       y1="57.390835"
       x2="85.329559"
       y2="57.390835"
       gradientUnits="userSpaceOnUse" />
    <linearGradient
       gradientTransform="matrix(3.7795276,0,0,3.7795276,-178.42254,-191.06632)"
       inkscape:collect="always"
       xlink:href="#linearGradient892"
       id="linearGradient32-35"
       x1="50.432499"
       y1="57.390835"
       x2="85.329559"
       y2="57.390835"
       gradientUnits="userSpaceOnUse" />
    <clipPath
       id="clipPath893"
       clipPathUnits="userSpaceOnUse">
      <rect
         ry="6.3152952"
         rx="0"
         y="50.552963"
         x="47.014252"
         height="33.866665"
         width="33.866665"
         id="rect895"
         style="font-variation-settings:normal;opacity:1;vector-effect:none;fill:url(#linearGradient897);fill-opacity:1;fill-rule:evenodd;stroke:none;stroke-width:0.0703392;stroke-linecap:butt;stroke-linejoin:miter;stroke-miterlimit:4;stroke-dasharray:none;stroke-dashoffset:0;stroke-opacity:1;stop-color:#000000;stop-opacity:1" />
    </clipPath>
    <linearGradient
       y2="51.282772"
       x2="63.622772"
       y1="80.642242"
       x1="63.622772"
       gradientUnits="userSpaceOnUse"
       id="linearGradient897"
       xlink:href="#linearGradient64"
       inkscape:collect="always" />
  </defs>
  <sodipodi:namedview
     inkscape:bbox-nodes="true"
     inkscape:snap-bbox-midpoints="true"
     inkscape:snap-bbox-edge-midpoints="true"
     inkscape:bbox-paths="true"
     inkscape:snap-bbox="true"
     inkscape:snap-global="true"
     id="base"
     pagecolor="#d2d2d2"
     bordercolor="#666666"
     borderopacity="1.0"
     inkscape:pageopacity="0"
     inkscape:pageshadow="2"
     inkscape:zoom="11.733626"
     inkscape:cx="18.792145"
     inkscape:cy="16.23539"
     inkscape:document-units="mm"
     inkscape:current-layer="layer1"
     showgrid="false"
     inkscape:window-width="1366"
     inkscape:window-height="743"
     inkscape:window-x="0"
     inkscape:window-y="0"
     inkscape:window-maximized="1"
     inkscape:pagecheckerboard="0"
     fit-margin-top="0"
     fit-margin-left="0"
     fit-margin-right="0"
     fit-margin-bottom="0"
     inkscape:document-rotation="0"
     inkscape:snap-page="true" />
  <metadata
     id="metadata5">
    <rdf:RDF>
      <cc:Work
         rdf:about="">
        <dc:format>image/svg+xml</dc:format>
        <dc:type
           rdf:resource="http://purl.org/dc/dcmitype/StillImage" />
        <dc:title />
      </cc:Work>
    </rdf:RDF>
  </metadata>
  <g
     inkscape:label="Capa 1"
     inkscape:groupmode="layer"
     id="layer1"
     transform="translate(-73.42997,-31.329193)">
    <rect
       style="fill:#1a1a1a;fill-rule:evenodd;stroke:none;stroke-width:0.693291;-inkscape-stroke:none;paint-order:stroke fill markers;stop-color:#000000"
       id="rect961"
       width="8.467"
       height="8.467"
       x="73.429634"
       y="31.329193"
       ry="4.2335" />
    <g
       aria-label="N"
       id="text23"
       style="font-style:normal;font-variant:normal;font-weight:normal;font-stretch:normal;font-size:20.9395px;line-height:1.25;font-family:'Roboto Black';-inkscape-font-specification:'Roboto Black, ';font-variation-settings:normal;opacity:1;vector-effect:none;fill:#ffe38d;fill-opacity:1;stroke:none;stroke-width:3.11029;stroke-linecap:round;stroke-linejoin:miter;stroke-miterlimit:4;stroke-dasharray:none;stroke-dashoffset:0;stroke-opacity:0.994789;stop-color:#000000;stop-opacity:1"
       transform="matrix(0.93011057,0,0,0.93011057,4.9150983,4.3512147)" />
    <g
       id="g1333"
       transform="matrix(0.80386485,0,0,0.80386485,15.232333,6.9697867)">
      <path
         d="m 75.680916,32.198134 0.01411,0.124522 c 0.01697,0.149598 0.182715,2.007114 0.276674,3.10061 0.03707,0.431471 0.07424,0.792455 0.08254,0.802149 0.0083,0.0097 0.373041,0.116828 0.810516,0.238101 l 0.795386,0.220492 0.611523,-0.168981 c 0.336327,-0.09295 0.700975,-0.194527 0.810369,-0.225697 l 0.198896,-0.05666 0.0681,-0.772039 c 0.184951,-2.097204 0.270375,-3.048474 0.282899,-3.150419 l 0.01376,-0.112071 h -1.982385 z m 0.74913,0.809396 h 1.236226 1.236178 l -0.0178,0.242089 c -0.0098,0.133128 -0.02316,0.250802 -0.02976,0.261498 -0.0067,0.0107 -0.431625,0.01941 -0.944474,0.01941 h -0.932458 l 1.94e-4,0.08094 c 9.7e-5,0.04452 0.0073,0.156588 0.01605,0.249045 l 0.01586,0.168106 h 0.908187 0.908187 l -0.01342,0.08094 c -0.0074,0.04452 -0.0384,0.377927 -0.06888,0.74091 -0.03082,0.367082 -0.06756,0.672371 -0.08274,0.687889 -0.015,0.01535 -0.237224,0.08539 -0.49381,0.155653 -0.256585,0.07026 -0.491932,0.126981 -0.522994,0.126031 -0.05364,-0.0016 -0.988372,-0.259962 -1.001336,-0.276723 -0.0068,-0.0089 -0.06383,-0.655475 -0.06377,-0.723981 3.3e-5,-0.03856 0.02835,-0.04358 0.245689,-0.04358 h 0.245641 l 0.01586,0.115572 c 0.0087,0.06355 0.0158,0.150891 0.0158,0.194081 v 0.07851 l 0.282753,0.07218 0.282802,0.07218 0.271323,-0.07359 0.271372,-0.0736 0.01727,-0.186443 c 0.0095,-0.102535 0.02267,-0.24528 0.02933,-0.317192 l 0.01206,-0.130749 H 77.41315 76.556862 l -0.01255,-0.08094 C 76.524393,34.317179 76.4297,33.204085 76.429907,33.100924 Z"
         style="fill:#ffffff;stroke-width:0.0249045"
         id="path60" />
      <g
         style="font-style:normal;font-weight:normal;font-size:2.34262px;line-height:1.25;font-family:sans-serif;fill:#ffffff;fill-opacity:1;stroke:none;stroke-width:0.0585658"
         id="text107"
         aria-label="HTML">
        <path
           id="path223"
           style="font-style:normal;font-variant:normal;font-weight:900;font-stretch:normal;font-family:Overpass;-inkscape-font-specification:'Overpass Heavy';fill:#ffffff;stroke-width:0.0585658"
           d="m 75.571107,38.91235 v -0.672332 h -0.651248 v 0.672332 h -0.356078 v -1.639834 h 0.356078 v 0.627822 h 0.651248 v -0.627822 h 0.358421 v 1.639834 z" />
        <path
           id="path225"
           style="font-style:normal;font-variant:normal;font-weight:900;font-stretch:normal;font-family:Overpass;-inkscape-font-specification:'Overpass Heavy';fill:#ffffff;stroke-width:0.0585658"
           d="m 77.001094,37.614538 v 1.297812 h -0.356078 v -1.297812 h -0.470867 v -0.342022 h 1.297812 v 0.342022 z" />
        <path
           id="path227"
           style="font-style:normal;font-variant:normal;font-weight:900;font-stretch:normal;font-family:Overpass;-inkscape-font-specification:'Overpass Heavy';fill:#ffffff;stroke-width:0.0585658"
           d="m 79.267066,38.91235 h -0.356078 v -0.812889 q 0,-0.02343 0.0023,-0.05154 -0.01171,0.02811 -0.02108,0.04685 l -0.398245,0.845686 -0.402931,-0.841 q -0.007,-0.0164 -0.01874,-0.05154 v 0.05154 0.812889 h -0.356078 v -1.639834 h 0.363106 l 0.381847,0.836315 q 0.0164,0.03748 0.03982,0.103075 0.02343,-0.06559 0.03982,-0.103075 l 0.39356,-0.836315 h 0.332652 z" />
        <path
           id="path229"
           style="font-style:normal;font-variant:normal;font-weight:900;font-stretch:normal;font-family:Overpass;-inkscape-font-specification:'Overpass Heavy';fill:#ffffff;stroke-width:0.0585658"
           d="m 79.61963,38.91235 v -1.639834 h 0.356079 v 1.295469 h 0.78712 v 0.344365 z" />
      </g>
    </g>
  </g>
</svg>
