<?xml version="1.0" encoding="UTF-8" standalone="no"?>
<svg
   width="8.4666662mm"
   height="8.4666662mm"
   viewBox="0 0 8.4666662 8.4666662"
   version="1.1"
   id="svg8"
   inkscape:version="1.2 (1:1.2+202206011327+fc4e4096c5)"
   sodipodi:docname="icono-youtube.svg"
   inkscape:export-filename="./favicon.png"
   inkscape:export-xdpi="96"
   inkscape:export-ydpi="96"
   xml:space="preserve"
   xmlns:inkscape="http://www.inkscape.org/namespaces/inkscape"
   xmlns:sodipodi="http://sodipodi.sourceforge.net/DTD/sodipodi-0.dtd"
   xmlns="http://www.w3.org/2000/svg"
   xmlns:svg="http://www.w3.org/2000/svg"
   xmlns:rdf="http://www.w3.org/1999/02/22-rdf-syntax-ns#"
   xmlns:cc="http://creativecommons.org/ns#"
   xmlns:dc="http://purl.org/dc/elements/1.1/"><defs
     id="defs2" /><sodipodi:namedview
     inkscape:bbox-nodes="true"
     inkscape:snap-bbox-midpoints="true"
     inkscape:snap-bbox-edge-midpoints="true"
     inkscape:bbox-paths="true"
     inkscape:snap-bbox="true"
     inkscape:snap-global="false"
     id="base"
     pagecolor="#d2d2d2"
     bordercolor="#666666"
     borderopacity="1.0"
     inkscape:pageopacity="0"
     inkscape:pageshadow="2"
     inkscape:zoom="2.9334065"
     inkscape:cx="48.066982"
     inkscape:cy="-30.681053"
     inkscape:document-units="mm"
     inkscape:current-layer="layer1"
     showgrid="false"
     inkscape:window-width="1366"
     inkscape:window-height="743"
     inkscape:window-x="0"
     inkscape:window-y="0"
     inkscape:window-maximized="1"
     inkscape:pagecheckerboard="0"
     fit-margin-top="0"
     fit-margin-left="0"
     fit-margin-right="0"
     fit-margin-bottom="0"
     inkscape:document-rotation="0"
     inkscape:snap-page="true"
     inkscape:showpageshadow="2"
     inkscape:deskcolor="#d2d2d2"
     inkscape:lockguides="true" /><metadata
     id="metadata5"><rdf:RDF><cc:Work
         rdf:about=""><dc:format>image/svg+xml</dc:format><dc:type
           rdf:resource="http://purl.org/dc/dcmitype/StillImage" /><dc:title /></cc:Work></rdf:RDF></metadata><g
     inkscape:label="Capa 1"
     inkscape:groupmode="layer"
     id="layer1"
     transform="translate(-46.635666,-50.174377)"><rect
       style="opacity:1;fill:#1a1a1a;fill-rule:evenodd;stroke:none;stroke-width:3.98055;paint-order:fill markers stroke;stop-color:#000000"
       id="rect493"
       width="8.467"
       height="8.467"
       x="46.635498"
       y="50.17421"
       ry="4.2335" /><g
       id="g406"
       transform="matrix(0.09471005,0,0,0.09471005,55.083936,46.177255)"><path
         style="fill:#ffffff;stroke-width:0.264583"
         d="m -29.686643,107.67681 c 6.955096,-0.44393 8.516741,-0.66579 9.994984,-1.41993 1.281454,-0.65375 2.883935,-2.40831 3.501922,-3.83427 2.095278,-4.834675 2.095278,-26.186338 0,-31.021016 -0.617987,-1.425956 -2.220468,-3.180517 -3.501922,-3.834265 -1.482087,-0.756105 -3.05022,-0.979326 -9.994984,-1.42276 -7.949774,-0.507606 -21.656779,-0.506296 -29.633334,0.0028 -6.955096,0.443931 -8.516741,0.665784 -9.994984,1.419929 -1.281454,0.653748 -2.883935,2.408309 -3.501922,3.834265 -2.099199,4.843724 -2.094913,26.188175 0.0062,31.035117 0.680302,1.56932 2.443282,3.37498 3.905599,4.00015 0.687885,0.29408 1.965074,0.62267 2.838199,0.73019 7.284474,0.89705 26.167199,1.16163 36.380208,0.50976 z"
         id="path400" /><path
         style="font-variation-settings:normal;opacity:1;vector-effect:none;fill:#1a1a1a;fill-opacity:1;stroke:none;stroke-width:48.4669;stroke-linecap:butt;stroke-linejoin:miter;stroke-miterlimit:4;stroke-dasharray:none;stroke-dashoffset:0;stroke-opacity:1;-inkscape-stroke:none;paint-order:fill markers stroke;stop-color:#000000;stop-opacity:1"
         d="m -51.251281,95.673314 c -0.09834,-0.366704 -0.180682,-4.628818 -0.182973,-9.47137 -0.0038,-8.102235 0.03651,-8.789029 0.505648,-8.609 0.890789,0.341827 16.271749,9.159723 16.263169,9.323663 -0.0068,0.130546 -7.534336,4.468167 -14.666893,8.451593 -1.730059,0.966216 -1.74118,0.967982 -1.918951,0.305114 z"
         id="path402" /></g></g></svg>
